ground reactions
version=1
nRows=32
nColumns=19
inDegrees=no
endheader
time	ground_force_l_vx	ground_force_l_vy	ground_force_l_vz	ground_force_l_px	ground_force_l_py	ground_force_l_pz	ground_torque_l_x	ground_torque_l_y	ground_torque_l_z	ground_force_r_vx	ground_force_r_vy	ground_force_r_vz	ground_force_r_px	ground_force_r_py	ground_force_r_pz	ground_torque_r_x	ground_torque_r_y	ground_torque_r_z
2.808333	104.291061	380.291682	-2.952091	0.672449	0.000000	-0.555151	0.000000	-1.988058	0.000000	-53.414449	415.554881	13.867808	1.134098	0.000000	-0.434670	0.000000	-0.773782	0.000000
2.809375	102.965108	372.601207	-3.343054	0.671543	0.000000	-0.554676	0.000000	-1.982129	0.000000	-55.010355	422.808226	13.028288	1.135128	0.000000	-0.434717	0.000000	-0.699920	0.000000
2.810417	101.573633	364.892814	-3.720037	0.670649	0.000000	-0.554194	0.000000	-1.975354	0.000000	-56.597659	430.019356	12.147036	1.136077	0.000000	-0.434765	0.000000	-0.627339	0.000000
2.811458	100.117701	357.171760	-4.082914	0.669769	0.000000	-0.553709	0.000000	-1.967712	0.000000	-58.174768	437.177034	11.227868	1.136938	0.000000	-0.434813	0.000000	-0.556661	0.000000
2.812500	98.598767	349.443405	-4.431691	0.668903	0.000000	-0.553230	0.000000	-1.959181	0.000000	-59.740074	444.270532	10.275337	1.137706	0.000000	-0.434863	0.000000	-0.488465	0.000000
2.813542	97.018681	341.713196	-4.766489	0.668050	0.000000	-0.552763	0.000000	-1.949737	0.000000	-61.291964	451.289706	9.294660	1.138379	0.000000	-0.434914	0.000000	-0.423284	0.000000
2.814583	95.379675	333.986653	-5.087532	0.667209	0.000000	-0.552317	0.000000	-1.939359	0.000000	-62.828827	458.225059	8.291639	1.138954	0.000000	-0.434967	0.000000	-0.361597	0.000000
2.815625	93.684357	326.269351	-5.395134	0.666378	0.000000	-0.551899	0.000000	-1.928023	0.000000	-64.349062	465.067795	7.272561	1.139431	0.000000	-0.435021	0.000000	-0.303826	0.000000
2.816667	91.935686	318.566899	-5.689672	0.665553	0.000000	-0.551515	0.000000	-1.915711	0.000000	-65.851085	471.809868	6.244077	1.139812	0.000000	-0.435077	0.000000	-0.250337	0.000000
2.817708	90.136955	310.884924	-5.971567	0.664730	0.000000	-0.551170	0.000000	-1.902402	0.000000	-67.333336	478.444011	5.213086	1.140100	0.000000	-0.435133	0.000000	-0.201436	0.000000
2.818750	88.291757	303.229052	-6.241262	0.663905	0.000000	-0.550871	0.000000	-1.888083	0.000000	-68.794283	484.963769	4.186590	1.140296	0.000000	-0.435189	0.000000	-0.157371	0.000000
2.819792	86.403957	295.604886	-6.499190	0.663072	0.000000	-0.550621	0.000000	-1.872741	0.000000	-70.232430	491.363511	3.171567	1.140406	0.000000	-0.435243	0.000000	-0.118331	0.000000
2.820833	84.477649	288.017986	-6.745756	0.662229	0.000000	-0.550426	0.000000	-1.856368	0.000000	-71.646319	497.638440	2.174820	1.140433	0.000000	-0.435295	0.000000	-0.084446	0.000000
2.821875	82.517121	280.473852	-6.981307	0.661373	0.000000	-0.550289	0.000000	-1.838960	0.000000	-73.034536	503.784588	1.202845	1.140382	0.000000	-0.435342	0.000000	-0.055797	0.000000
2.822917	80.526810	272.977902	-7.206109	0.660504	0.000000	-0.550216	0.000000	-1.820518	0.000000	-74.395714	509.798812	0.261695	1.140259	0.000000	-0.435383	0.000000	-0.032409	0.000000
2.823958	78.511256	265.535452	-7.420327	0.659626	0.000000	-0.550212	0.000000	-1.801049	0.000000	-75.728536	515.678773	-0.643144	1.140070	0.000000	-0.435417	0.000000	-0.014261	0.000000
2.825000	76.475056	258.151700	-7.624006	0.658747	0.000000	-0.550285	0.000000	-1.780564	0.000000	-77.031741	521.422910	-1.506870	1.139818	0.000000	-0.435442	0.000000	-0.001289	0.000000
2.826042	74.422819	250.831707	-7.817055	0.657881	0.000000	-0.550445	0.000000	-1.759079	0.000000	-78.304124	527.030415	-2.325459	1.139511	0.000000	-0.435456	0.000000	0.006609	0.000000
2.827083	72.359120	243.580377	-7.999237	0.657046	0.000000	-0.550704	0.000000	-1.736617	0.000000	-79.544539	532.501191	-3.095752	1.139153	0.000000	-0.435458	0.000000	0.009573	0.000000
2.828125	70.288453	236.402448	-8.170159	0.656265	0.000000	-0.551075	0.000000	-1.713202	0.000000	-80.751907	537.835814	-3.815515	1.138749	0.000000	-0.435448	0.000000	0.007769	0.000000
2.829167	68.215195	229.302469	-8.329274	0.655569	0.000000	-0.551576	0.000000	-1.688866	0.000000	-81.925214	543.035489	-4.483482	1.138304	0.000000	-0.435424	0.000000	0.001389	0.000000
2.830208	66.143561	222.284794	-8.475883	0.654990	0.000000	-0.552221	0.000000	-1.663643	0.000000	-83.063517	548.101998	-5.099380	1.137822	0.000000	-0.435386	0.000000	-0.009353	0.000000
2.831250	64.077574	215.353567	-8.609141	0.654562	0.000000	-0.553028	0.000000	-1.637571	0.000000	-84.165948	553.037651	-5.663920	1.137306	0.000000	-0.435334	0.000000	-0.024229	0.000000
2.832292	62.021029	208.512710	-8.728073	0.654318	0.000000	-0.554007	0.000000	-1.610688	0.000000	-85.231716	557.845233	-6.178776	1.136762	0.000000	-0.435269	0.000000	-0.042999	0.000000
2.833333	59.977473	201.765920	-8.831592	0.654288	0.000000	-0.555166	0.000000	-1.583035	0.000000	-86.260111	562.527951	-6.646542	1.136191	0.000000	-0.435191	0.000000	-0.065414	0.000000
2.834375	57.950183	195.116658	-8.918518	0.654492	0.000000	-0.556504	0.000000	-1.554653	0.000000	-87.250506	567.089378	-7.070658	1.135597	0.000000	-0.435101	0.000000	-0.091223	0.000000
2.835417	55.942147	188.568145	-8.987610	0.654941	0.000000	-0.558006	0.000000	-1.525581	0.000000	-88.202366	571.533399	-7.455329	1.134983	0.000000	-0.435001	0.000000	-0.120169	0.000000
2.836458	53.956060	182.123362	-9.037592	0.655628	0.000000	-0.559647	0.000000	-1.495858	0.000000	-89.115244	575.864159	-7.805416	1.134349	0.000000	-0.434893	0.000000	-0.152001	0.000000
2.837500	51.994318	175.785040	-9.067189	0.656531	0.000000	-0.561383	0.000000	-1.465516	0.000000	-89.988786	580.086009	-8.126322	1.133699	0.000000	-0.434780	0.000000	-0.186467	0.000000
2.838542	50.059023	169.555666	-9.075164	0.657608	0.000000	-0.563155	0.000000	-1.434588	0.000000	-90.822737	584.203459	-8.423856	1.133033	0.000000	-0.434662	0.000000	-0.223322	0.000000
2.839583	48.151987	163.437481	-9.060347	0.658798	0.000000	-0.564888	0.000000	-1.403098	0.000000	-91.616938	588.221124	-8.704098	1.132354	0.000000	-0.434544	0.000000	-0.262324	0.000000
2.840625	46.274748	157.432476	-9.021684	0.660023	0.000000	-0.566491	0.000000	-1.371065	0.000000	-92.371329	592.143682	-8.973250	1.131663	0.000000	-0.434428	0.000000	-0.303241	0.000000
